<?xml version="1.0" encoding="UTF-8" standalone="no"?>
<svg width="512" height="512" viewBox="0 0 512 512" fill="none" xmlns="http://www.w3.org/2000/svg">
  <!-- Gradient definitions -->
  <defs>
    <linearGradient id="primaryGradient" x1="0%" y1="0%" x2="100%" y2="100%">
      <stop offset="0%" stop-color="#1E90FF" /> <!-- Electric Blue -->
      <stop offset="100%" stop-color="#39FF14" /> <!-- Neon Green -->
    </linearGradient>
    <radialGradient id="tokenGradient" cx="50%" cy="50%" r="70%" fx="50%" fy="50%">
      <stop offset="0%" stop-color="#39FF14" stop-opacity="0.9" /> <!-- Neon Green Center -->
      <stop offset="70%" stop-color="#1E90FF" stop-opacity="0.95" /> <!-- Electric Blue Mid -->
      <stop offset="100%" stop-color="#1270CD" stop-opacity="1" /> <!-- Darker Blue Edge -->
    </radialGradient>
    <filter id="glow" x="-20%" y="-20%" width="140%" height="140%">
      <feGaussianBlur stdDeviation="6" result="blur" />
      <feComposite in="SourceGraphic" in2="blur" operator="over" />
    </filter>
  </defs>
  
  <!-- Main token circle with gradient fill -->
  <circle cx="256" cy="256" r="220" fill="url(#tokenGradient)" filter="url(#glow)" />
  
  <!-- Outer ring with subtle white glow -->
  <circle cx="256" cy="256" r="210" stroke="white" stroke-width="3" stroke-opacity="0.3" fill="none" />
  
  <!-- Inner "S" mark in white -->
  <path d="M312 190C312 153.549 282.451 124 246 124H180C171.163 124 164 131.163 164 140C164 148.837 171.163 156 180 156H246C264.778 156 280 171.222 280 190V216H218C185.944 216 160 241.944 160 274C160 306.056 185.944 332 218 332H284C292.837 332 300 324.837 300 316C300 307.163 292.837 300 284 300H218C203.641 300 192 288.359 192 274C192 259.641 203.641 248 218 248H280C297.673 248 312 233.673 312 216V190Z" 
        fill="white" filter="url(#glow)" />
        
  <!-- Decorative elements -->
  <circle cx="256" cy="256" r="180" stroke="white" stroke-width="1" stroke-opacity="0.2" fill="none" />
  <circle cx="256" cy="256" r="150" stroke="white" stroke-width="1" stroke-opacity="0.15" fill="none" />
  
  <!-- Subtle sparkles -->
  <circle cx="180" cy="140" r="4" fill="white" fill-opacity="0.8" />
  <circle cx="246" cy="156" r="4" fill="white" fill-opacity="0.8" />
  <circle cx="218" cy="248" r="4" fill="white" fill-opacity="0.8" />
  <circle cx="284" cy="300" r="4" fill="white" fill-opacity="0.8" />
</svg>