<svg xmlns="http://www.w3.org/2000/svg" width="512" height="512" fill="none" viewBox="0 0 512 512"><defs><radialGradient id="tokenGradient" cx="50%" cy="50%" r="70%" fx="50%" fy="50%"><stop offset="0%" stop-color="#39FF14" stop-opacity=".9"/><stop offset="70%" stop-color="#1E90FF" stop-opacity=".95"/><stop offset="100%" stop-color="#1270CD" stop-opacity="1"/></radialGradient><filter id="glow" width="140%" height="140%" x="-20%" y="-20%"><feGaussianBlur result="blur" stdDeviation="6"/><feComposite in="SourceGraphic" in2="blur" operator="over"/></filter></defs><circle cx="256" cy="256" r="220" fill="url(#tokenGradient)" filter="url(#glow)"/><circle cx="256" cy="256" r="210" fill="none" stroke="#fff" stroke-opacity=".3" stroke-width="3"/><g filter="url(#glow)"><path fill="#fff" fill-opacity=".95" d="M256 350c-55 0-100-45-100-100c0-55 45-100 100-100c55 0 100 45 100 100c0 55-45 100-100 100z"/><path fill="#fff" fill-opacity=".95" d="M178 190l-30-50c-3-5 3-10 7-6l43 43c1 1 0 3-2 3l-10 10c-3 3-7 2-8 0z"/><path fill="#fff" fill-opacity=".95" d="M334 190l30-50c3-5-3-10-7-6l-43 43c-1 1 0 3 2 3l10 10c3 3 7 2 8 0z"/><ellipse cx="210" cy="240" fill="#1270CD" rx="25" ry="30"/><ellipse cx="302" cy="240" fill="#1270CD" rx="25" ry="30"/><ellipse cx="210" cy="240" fill="#39FF14" rx="3" ry="20"/><ellipse cx="302" cy="240" fill="#39FF14" rx="3" ry="20"/><path fill="#1270CD" d="M256 280l-12-12h24z"/><path fill="none" stroke="#1270CD" stroke-width="2" d="M256 290c-10 0-30 5-30 15c0 8 20 10 30 10c10 0 30-2 30-10c0-10-20-15-30-15z"/><line x1="160" x2="220" y1="275" y2="285" stroke="#fff" stroke-width="2"/><line x1="160" x2="220" y1="290" y2="290" stroke="#fff" stroke-width="2"/><line x1="160" x2="220" y1="305" y2="295" stroke="#fff" stroke-width="2"/><line x1="352" x2="292" y1="275" y2="285" stroke="#fff" stroke-width="2"/><line x1="352" x2="292" y1="290" y2="290" stroke="#fff" stroke-width="2"/><line x1="352" x2="292" y1="305" y2="295" stroke="#fff" stroke-width="2"/></g><circle cx="256" cy="256" r="180" fill="none" stroke="#fff" stroke-opacity=".2" stroke-width="1"/><circle cx="256" cy="256" r="150" fill="none" stroke="#fff" stroke-opacity=".15" stroke-width="1"/><circle cx="210" cy="225" r="4" fill="#fff" fill-opacity=".8"/><circle cx="302" cy="225" r="4" fill="#fff" fill-opacity=".8"/></svg>