<?xml version="1.0" encoding="UTF-8"?>
<svg width="512" height="512" viewBox="0 0 512 512" fill="none" xmlns="http://www.w3.org/2000/svg">
  <circle cx="256" cy="256" r="248" fill="#242535" stroke="#9C27B0" stroke-width="16"/>
  <path d="M118 170C118 156.745 128.745 146 142 146H370C383.255 146 394 156.745 394 170V194C394 207.255 383.255 218 370 218H142C128.745 218 118 207.255 118 194V170Z" fill="#9C27B0"/>
  <path d="M118 244C118 230.745 128.745 220 142 220H292C305.255 220 316 230.745 316 244V268C316 281.255 305.255 292 292 292H142C128.745 292 118 281.255 118 268V244Z" fill="#00BCD4"/>
  <path d="M118 318C118 304.745 128.745 294 142 294H370C383.255 294 394 304.745 394 318V342C394 355.255 383.255 366 370 366H142C128.745 366 118 355.255 118 342V318Z" fill="#FF9800"/>
</svg>