<?xml version="1.0" encoding="UTF-8"?>
<svg width="200px" height="200px" viewBox="0 0 200 200" version="1.1" xmlns="http://www.w3.org/2000/svg" xmlns:xlink="http://www.w3.org/1999/xlink">
    <title>SLERF Cat Logo</title>
    <defs>
        <linearGradient x1="0%" y1="0%" x2="100%" y2="100%" id="catGradient">
            <stop stop-color="#FF00E5" offset="0%"></stop>
            <stop stop-color="#953BFF" offset="100%"></stop>
        </linearGradient>
        <radialGradient id="leftEyeGlow" cx="35%" cy="37%" r="15%" fx="35%" fy="37%">
            <stop offset="0%" stop-color="#FF00E5" stop-opacity="1"/>
            <stop offset="100%" stop-color="#FF00E5" stop-opacity="0"/>
        </radialGradient>
        <radialGradient id="rightEyeGlow" cx="65%" cy="37%" r="15%" fx="65%" fy="37%">
            <stop offset="0%" stop-color="#00E1FF" stop-opacity="1"/>
            <stop offset="100%" stop-color="#00E1FF" stop-opacity="0"/>
        </radialGradient>
        <filter id="glow" x="-50%" y="-50%" width="200%" height="200%">
            <feGaussianBlur stdDeviation="5" result="blur"/>
            <feComposite in="SourceGraphic" in2="blur" operator="over"/>
        </filter>
    </defs>
    <g stroke="none" stroke-width="1" fill="none" fill-rule="evenodd">
        <!-- Face shape -->
        <path d="M100,10 C50,10 20,50 20,100 C20,150 50,190 100,190 C150,190 180,150 180,100 C180,50 150,10 100,10 Z" 
              fill="#000000" />
        
        <!-- Ears -->
        <path d="M30,60 L60,30 L70,70 Z" fill="#000000" />
        <path d="M170,60 L140,30 L130,70 Z" fill="#000000" />
        
        <!-- Ear highlights -->
        <path d="M35,58 L58,35 L65,65 Z" fill="#FF00E5" opacity="0.7" />
        <path d="M165,58 L142,35 L135,65 Z" fill="#00E1FF" opacity="0.7" />
        
        <!-- Face details, collar -->
        <ellipse cx="100" cy="115" rx="25" ry="20" fill="#111111" />
        <path d="M75,115 C75,115 85,125 100,125 C115,125 125,115 125,115" 
              stroke="#FF00E5" stroke-width="2" fill="none" />
        
        <!-- Collar -->
        <path d="M70,140 C80,150 120,150 130,140" stroke="#953BFF" stroke-width="4" fill="none" />
        <circle cx="100" cy="143" r="5" fill="#00E1FF" filter="url(#glow)" />
        
        <!-- Left eye socket -->
        <ellipse cx="70" cy="75" rx="20" ry="18" fill="#111111" />
        
        <!-- Right eye socket -->
        <ellipse cx="130" cy="75" rx="20" ry="18" fill="#111111" />
        
        <!-- Left eye -->
        <ellipse cx="70" cy="75" rx="15" ry="13" fill="#FF00E5" filter="url(#glow)" />
        <ellipse cx="70" cy="75" rx="7" ry="6" fill="white" opacity="0.8" />
        <ellipse cx="70" cy="75" rx="4" ry="3.5" fill="black" />
        
        <!-- Right eye -->
        <ellipse cx="130" cy="75" rx="15" ry="13" fill="#00E1FF" filter="url(#glow)" />
        <ellipse cx="130" cy="75" rx="7" ry="6" fill="white" opacity="0.8" />
        <ellipse cx="130" cy="75" rx="4" ry="3.5" fill="black" />
        
        <!-- Eye glows -->
        <ellipse cx="70" cy="75" rx="25" ry="23" fill="url(#leftEyeGlow)" opacity="0.4" />
        <ellipse cx="130" cy="75" rx="25" ry="23" fill="url(#rightEyeGlow)" opacity="0.4" />
        
        <!-- Nose -->
        <path d="M95,105 L100,110 L105,105 Z" fill="#FF00E5" />
        
        <!-- Whiskers -->
        <path d="M85,110 L60,105" stroke="#555555" stroke-width="1.5" />
        <path d="M85,115 L60,115" stroke="#555555" stroke-width="1.5" />
        <path d="M85,120 L60,125" stroke="#555555" stroke-width="1.5" />
        
        <path d="M115,110 L140,105" stroke="#555555" stroke-width="1.5" />
        <path d="M115,115 L140,115" stroke="#555555" stroke-width="1.5" />
        <path d="M115,120 L140,125" stroke="#555555" stroke-width="1.5" />
    </g>
</svg>